<?xml version="1.0" encoding="UTF-8"?>
<svg version="1.1" viewBox="0 0 2048 1350" width="1280" height="1280" xmlns="http://www.w3.org/2000/svg">
<path transform="translate(0)" d="m0 0h2048v1350h-2048z" fill="#2E2E2E"/>
<path transform="translate(361,548)" d="m0 0h254l2 2 1 13v178l-2 5-123 1v30l48 1 3 3v5l-2 2h-110l-2-2v-6l3-2h49l-1-31-123-1-1-2-1-9v-181l2-5z" fill="#2E2E2E"/>
<path transform="translate(1823)" d="m0 0h225v196l-7-4-2 4-2 6-3 8-2 2-1 5 1 4-3 3-1 4-3 3h-3v4h-2l-1 4-6 4-1 2 4 1v2l2 1h-3l-1 2-1-1-2 3h-4l-2-1v2h-2v-2l-4 2-2-4-2-1-1-5-5 2-7-2-5-3-6 2-1-6-2-1v-4l-2 2-1 2-4 1-2-4v-3l-3-1-1 3-3-2-4-2v-2l-3-1-6-3-2-3v2h-2l-1 3-4-1-5-6h-3v2h-2v2l-5 1-2-2v-5l-2 2 2 2-5 5-2-3-1-4 2-3-3-8-4 3-1-6h-4-2v-2l-3 1-4-3v-10l-4-2-1-4-1-3-4-1-1-2-3-1v-6l-3-4 1-2-3-1-5-5-5-1-1-5v-2l-5-4-1 2-1-5h-3l-1-6-2-5h-2l-1-4-6-2-3-3v-7l-3-1-4-8h-3v-17h2l1-3-7-3-2-6v-2h-2v-5h-2l-1-4h-2v-2l-4-1-2-3v-10l-1-3 2-7 2-2-1-6 2-2 2 3 1 5 2-3 3-10 4-4-1-2-1-4 4-4 1 3h2l2-10h-3z" fill="#494848"/>
<path transform="translate(0,827)" d="m0 0 3 4 2 8 1 20 1 3 1 12 1 4-1 5v10h2l1 2 3 36 3 13 2 17 3 21 2 9 2 7 3 3 2 9 6 11 3 4 3 9 3 7 5 8 3 7v3h2l5 9 6 11 6 10 7 11 6 8 3 6 6 9 11 17 5 8v2l3 1 4 9 9 14 4 6 5 10 8 11 10 16 7 12v2l4 2 6 12 3 3 4 10 6 10 7 10 5 10 2 7-1 8 2 2 2 5 3 3 1 7h2l5 10 3 9 12 2 5 2 21 3 7 3v1h-260z" fill="#161414"/>
<path transform="translate(361,548)" d="m0 0h254l2 2 1 13v178l-2 5-123 1v30l48 1 3 3v5l-2 2h-110l-2-2v-6l3-2h49l-1-31-123-1-1-2-1-9v-181l2-5zm6 10-1 1v175l1 2 34 1h203l4-2v-176l-1-1z" fill="#E8F1CE"/>
<path transform="translate(1209,578)" d="m0 0h19l10 5 5 4 6 10 2 7 1 11v30l-2 13-6 12-8 7-11 4h-14l-11-4-8-7-6-12-1-5-1-15v-24l2-14 5-10 8-8z" fill="#E8F1CE"/>
<path transform="translate(1411,578)" d="m0 0h61l1 9-2 13-14 25-12 21-5 9 17 1h15v24h-63l-1-4v-12l3-8 12-21 13-23 6-10h-32v-23z" fill="#E8F1CE"/>
<path transform="translate(1270,578)" d="m0 0h17l3 4 12 37 3 7 13-38 3-9 2-1h22l1 2-13 40-12 35-8 24-1 1h-14l-4-9-13-40-14-41-3-11z" fill="#E8F1CE"/>
<path transform="translate(931,578)" d="m0 0 7 1-12 37-3 9-1 8h2l2-9 13-38 2-6 3 4 14 43 16 48v5h-6l-4-3v3h-8l-5-15-2-1h-25l-3-3-3-4v-2l25-1-30-1-3 12-5 14-1 1h-7l3-11 14-43 14-41z" fill="#323232"/>
<path transform="translate(1364,578)" d="m0 0h16l5 1v100l-1 1h-22l-1-1v-100z" fill="#E8F1CE"/>
<path transform="translate(1210,581)" d="m0 0h17l8 4 5 4 5 7 3 10 1 8v30l-2 13-4 9-4 1-3-4 4-11v-45l-4-10-4-5-6-3h-15l-8 4-6 9-1 4v45l3 9 6 7 8 3h11l10-4 4 4-5 5-7 3h-14l-10-4-8-7-5-10-1-5v-47l4-11 7-8 8-4z" fill="#343434"/>
<path transform="translate(1107,578)" d="m0 0h18l10 5 5 5 5 8 3 12v5h-7l-4-15-5-8-8-4-5-1h-7l-9 3-7 6-4 9-1 7v38l2 11 6 9 10 5h12l9-4 3-2 4 5-2 4-8 4-10 2-10-1-10-4-7-7-5-10-2-14v-34l2-13 5-10 9-8z" fill="#E8F1CE"/>
<path transform="translate(853,711)" d="m0 0h26l2 4 1-4h25l-1 4h-21l1 20h21v3h-22v20l23 1-1 3h-54v-7l11-20 12-20h-23z" fill="#323232"/>
<path transform="translate(1612,710)" d="m0 0 9 1 5 6 1 4v32l-2 5-5 4-7 1-9-3-3-5-1-5v-29l3-7 5-3z" fill="#313131"/>
<path transform="translate(1021,711)" d="m0 0h12l5 4 2 7v31l-2 5-4 4-8 1-7-2-5-6-1-7v-25l2-7z" fill="#302F2F"/>
<path transform="translate(1214,591)" d="m0 0h8l8 3 6 7 2 7 1 9v25l-2 13-6 9-8 4h-9l-7-3-5-5-3-5-1-4v-44l3-8 4 2 2 4-1 3v42l4 8 3 2h9l5-3 3-6v-43l-3-6-4-3h-10l-5 1-3-3 1-3z" fill="#343434"/>
<path transform="translate(1269,582)" d="m0 0h6l5 12 17 51 2 7 2-3 22-66 1-1h6l-1 8-27 81-3 4-3-8-27-81z" fill="#333"/>
<path transform="translate(1513,711)" d="m0 0h12l7 3 3 3 1 9-4 7 2 4 4 5 1 8-3 7-5 4-4 1h-15v-50z" fill="#E8F1CE"/>
<path transform="translate(941,580)" d="m0 0 3 4 14 43 16 48v5h-6l-4-10-12-36-10-29-2 4-11 32-1 1h-7l2-9 15-45z" fill="#E8F1CE"/>
<path transform="translate(1216,601)" d="m0 0 7 1 4 5 1 2v40l-3 6-2 2-6 1-5-2-3-4-1-3v-39l3-6z" fill="#303030"/>
<path transform="translate(1414,582)" d="m0 0h51l-7 14-12 21-13 23-9 16-10 17-2 1v-12l6-12 10-17 14-25 9-16 1-3-5 1h-30l-3-1-1-6z" fill="#343434"/>
<path transform="translate(1468,584)" d="m0 0h1v12l-9 17-32 56 41 1v6l-1 1h-44l-7-1 1-5 16-28 14-25 14-24z" fill="#333232"/>
<path transform="translate(1099,596)" d="m0 0 4 3-1 8v44l3 7 5 4 7 1 7-3 4-5 1-4v-14l-13-1v-6h21v22l-4 10-5 5-5 3-4 1h-7l-8-3-7-8-3-10v-44l3-8z" fill="#E8F1CE"/>
<path transform="translate(931,578)" d="m0 0 7 1-12 37-9 28 3 1 21 1 2 3v4h-30l-3 12-5 14-1 1h-7l3-11 14-43 14-41z" fill="#E8F1CE"/>
<path transform="translate(497,600)" d="m0 0 4 1 1 2-1 11-16 64-4 14-2 2h-5l-2-2v-7l17-69 4-13z" fill="#E8F1CE"/>
<path transform="translate(1e3 579)" d="m0 0h7l1 82 42 1v7h-49l-1-1z" fill="#E8F1CE"/>
<path transform="translate(1468,711)" d="m0 0h14l7 3 4 6 1 8-3 7-4 5h-2l6 12 5 8v2h-4l-11-20-11-1v21h-3v-50z" fill="#E8F1CE"/>
<path transform="translate(1047,711)" d="m0 0h14l7 3 4 6 1 7-2 7-4 5-2 1 1 5 9 15v2l-4-1-5-8-6-11-11-1v21h-3v-50z" fill="#E8F1CE"/>
<path transform="translate(1633,711)" d="m0 0h15l7 3 4 6v12l-5 7-2 1 1 5 9 16-4 1-10-18-1-2-11-1v21h-3z" fill="#E8F1CE"/>
<path transform="translate(1110,588)" d="m0 0h12l6 3 5 5 4 11v6h-7l-3-12-4-4-3-1h-10l-5 2-3-2-1 2h-3l-3 8v44l3 10 6 7 8 3h11l1 3-3 1h-12l-10-5-6-8-2-5-1-8v-38l2-10 3-6 7-2z" fill="#383838"/>
<path transform="translate(941,614)" d="m0 0 2 2 19 57 2 7h-8l-5-15-2-1h-25l-3-3-2-5h29l-10-31 1-7z" fill="#E8F1CE"/>
<path transform="translate(1335,582)" d="m0 0h6l-2 9-28 84-4 2-4-1 3-11 21-62 6-19z" fill="#343434"/>
<path transform="translate(1365,582)" d="m0 0h6l1 2v91l-1 1h-6l-1-75z" fill="#3A3939"/>
<path transform="translate(527,622)" d="m0 0 6 1 20 20 2 3-1 4-7 7-7 8-7 7-6 1-3-3 1-5 7-8 9-8-1-4-15-15-1-6z" fill="#E8F1CE"/>
<path transform="translate(1375,582)" d="m0 0h6l1 2v91l-1 1h-6z" fill="#3A3939"/>
<path transform="translate(443,622)" d="m0 0 6 1 1 1v5l-10 10-2 3h-2v2l-3 2 1 4 8 7 7 7 1 6-3 3-5-1-23-23 1-4 7-8 14-14z" fill="#E8F1CE"/>
<path transform="translate(1012,578)" d="m0 0 6 1v79h-7v-79z" fill="#E8F1CE"/>
<path transform="translate(1344,711)" d="m0 0 4 2 12 24 6 13 1-29 1-10 3 1v49l-3 1-2-1-15-33-3-6-1 38-1 2h-3v-50z" fill="#E8F1CE"/>
<path transform="translate(938,711)" d="m0 0h3l9 32 5 19-4-1-3-11v-3l-17 1-3 13-4 1 4-17 9-32z" fill="#E8F1CE"/>
<path transform="translate(797,711)" d="m0 0 3 1 13 48v2h-3l-4-14-17-1-2 11-2 4h-2l1-7 11-41z" fill="#E8F1CE"/>
<path transform="translate(1152,711)" d="m0 0 3 1 11 25 2 5 5-10 8-18 2-3 3 1v49l-3 1-1-36-1-3-10 24-3 2-5-8-8-20-1 41h-3v-50z" fill="#E8F1CE"/>
<path transform="translate(1119,711)" d="m0 0 3 1v23l18-1 1-22 3-1 1 3v47l-4 1-1-23h-18v23l-4-1v-49z" fill="#E8F1CE"/>
<path transform="translate(1612,710)" d="m0 0 9 1 5 6 1 4v32l-2 5-5 4-7 1-9-3-3-5-1-5v-29l3-7 5-3zm0 3-6 3-2 4v33l3 5 2 1h9l5-5 1-8v-18l-1-9-5-5z" fill="#E8F1CE"/>
<path transform="translate(994,710)" d="m0 0 9 2 3 3 2 8-1 5-3-1-2-10-2-2-6-1-7 3-1 2-1 21 1 15 2 3 3 1h7l4-1 1-4 1-14h-9l-2-2 1-1h13l1 1v13l-2 7-5 4-4 1h-7l-5-3-3-4-1-5v-30l4-8z" fill="#E8F1CE"/>
<path transform="translate(1021,711)" d="m0 0h12l5 4 2 7v31l-2 5-4 4-8 1-7-2-5-6-1-7v-25l2-7zm1 3-4 3-1 3v33l3 5 2 1h9l5-5 1-7v-24l-3-7-3-2z" fill="#E8F1CE"/>
<path transform="translate(1637,714)" d="m0 0h10l6 3 3 4v9l-4 6-6 2h-9l-1-1v-22z" fill="#323232"/>
<path transform="translate(1050,714)" d="m0 0h10l6 3 3 4v9l-4 6-6 2h-9l-1-1v-22z" fill="#323131"/>
<path transform="translate(1471,714)" d="m0 0h9l7 3 3 5v8l-4 6-6 2h-9l-1-1v-22z" fill="#323232"/>
<path transform="translate(1280,582)" d="m0 0h5l3 5 15 45-1 7-2 4-2-1-19-57z" fill="#343434"/>
<path transform="translate(1543,711)" d="m0 0h24v4h-21l1 19 20 1v3h-21l1 20 21 1v3h-25l-1-2v-48z" fill="#E8F1CE"/>
<path transform="translate(1200,711)" d="m0 0h11l5 4 2 5v8l-4-1-1-8-4-4-5-1-5 2-2 2-1 7 3 6 15 8 4 5v11l-3 5-6 3h-7l-6-3-4-6v-7l4 1 3 9 4 2 7-1 3-3 1-2v-6l-2-4-15-8-5-6v-10l4-6z" fill="#E8F1CE"/>
<path transform="translate(730,711)" d="m0 0h11l5 4 2 6v6l-3 1-2-9-4-4-5-1-5 2-3 5 1 7 5 5 12 6 4 5v11l-6 7-3 1h-8l-5-3-3-4-1-9 4 1 3 9 4 2 7-1 3-3 1-2v-6l-2-4-15-8-4-4-1-3v-9l4-6z" fill="#E8F1CE"/>
<path transform="translate(1271,711)" d="m0 0h3v25h2l2-4 10-16 4-5h3l-2 6-8 13 1 6 11 25-3 1-8-16-4-9-3 1-4 6-1 18h-3z" fill="#E8F1CE"/>
<path transform="translate(1e3 672)" d="m0 0h49v8h-49l-1-1v-6z" fill="#E8F1CE"/>
<path transform="translate(1515,737)" d="m0 0h14l5 4 1 2v9l-4 5-5 2h-10l-1-1z" fill="#323131"/>
<path transform="translate(1378,711)" d="m0 0h23l1 4h-22l1 19 21 1-1 3h-21v20h22v4h-24l-1-1v-49z" fill="#E8F1CE"/>
<path transform="translate(1302,711)" d="m0 0h24v4h-21l1 19 20 1v3h-21v20h21l1 4h-25z" fill="#E8F1CE"/>
<path transform="translate(1438,711)" d="m0 0h24v4h-21l1 19 21 1-1 3h-21v20l22 1v3h-25l-1-46z" fill="#E8F1CE"/>
<path transform="translate(882,711)" d="m0 0h25l-1 4h-21l1 20h21v3h-22v20l23 1-1 3h-25z" fill="#E8F1CE"/>
<path transform="translate(1667,711)" d="m0 0h24v4h-21l1 19 21 1v3h-22l1 20h20l1 4h-25z" fill="#E8F1CE"/>
<path transform="translate(853,711)" d="m0 0h26l1 5-15 27-8 14 5 1 17 1v3h-26v-7l11-20 12-20h-23z" fill="#E8F1CE"/>
<path transform="translate(1573,711)" d="m0 0h24v4h-20v20h20v4h-20v23h-4z" fill="#E8F1CE"/>
<path transform="translate(754,711)" d="m0 0h3l1 38 2 7 3 2h9l3-1 1-4 1-41 3-1v44l-3 5-3 2-10 1-6-3-4-6z" fill="#E8F1CE"/>
<path transform="translate(1110,588)" d="m0 0h12l6 3 5 5 4 11v6h-7l-3-12-4-4-3-1h-10l-5 2-4-5 6-4z" fill="#E8F1CE"/>
<path transform="translate(1516,714)" d="m0 0h8l5 2 3 3 1 6-3 6-3 2h-11l-1-2v-16z" fill="#323232"/>
<path transform="translate(1090,711)" d="m0 0h25v4h-11v47l-4-1v-46h-11z" fill="#E8F1CE"/>
<path transform="translate(1404,711)" d="m0 0h3l4 13 7 27v4h2l2-10 9-33 4-1-7 26-7 24-3 1-5-16-9-33z" fill="#E8F1CE"/>
<path transform="translate(676,711)" d="m0 0 4 1 11 42 3-8 9-33 4-2-7 27-7 24h-3l-12-42z" fill="#E8F1CE"/>
<path transform="translate(1141,630)" d="m0 0h7v21l-2 9-4 8-3 2-3-4 1-5 2-5 1-6z" fill="#E8F1CE"/>
<path transform="translate(959,711)" d="m0 0 3 1 1 46 16 1v3h-20l-1-2v-48z" fill="#E8F1CE"/>
<path transform="translate(1236,711)" d="m0 0h2l1 11 1 36 16 1v3h-20l-1-1v-49z" fill="#E8F1CE"/>
<path transform="translate(1436,660)" d="m0 0h33v7h-34l-1-4z" fill="#2E2E2E"/>
<path transform="translate(798,716)" d="m0 0 2 3 5 21v4h-15l5-21z" fill="#333232"/>
<path transform="translate(939,717)" d="m0 0 2 1 6 24v2h-15l1-7 5-19z" fill="#323232"/>
<path transform="translate(946,616)" d="m0 0 2 3 12 37 7 20-1 2h-3l-16-47-2-9z" fill="#373737"/>
<path transform="translate(1418,592)" d="m0 0h27l2 1-2 5-1 1h-30l-1-1v-5z" fill="#373636"/>
<path transform="translate(354,554)" d="m0 0h1v119l-2 3v16l-1 8h-1v-42l1-8v-17l1-4z" fill="#161414"/>
<path transform="translate(818,711)" d="m0 0 2 1v46h17v4h-20v-50z" fill="#E8F1CE"/>
<path transform="translate(1080,711)" d="m0 0h4v51h-4z" fill="#E8F1CE"/>
<path transform="translate(1261,711)" d="m0 0 3 1v50h-4v-50z" fill="#E8F1CE"/>
<path transform="translate(842,711)" d="m0 0 4 1v49l-4 1z" fill="#E8F1CE"/>
<path transform="translate(713,711)" d="m0 0 3 1v50l-4-1v-49z" fill="#E8F1CE"/>
<path transform="translate(935,586)" d="m0 0h3l-1 8-13 39h-2v-8z" fill="#2D2B2B"/>
<path transform="translate(915,658)" d="m0 0 4 4 1 5-4 12-1 1h-6l1-7z" fill="#E8F1CE"/>
<path transform="translate(345,1174)" d="m0 0 4 8 2 1v3h2l1 3 4 4-1 3-8-4-2 1 1-5-2-1 1-3-5 2v-3l2-2v-6z" fill="#161414"/>
<path transform="translate(1417,673)" d="m0 0 1 2 51-1-1 3h-44l-7-1z" fill="#4A4949"/>
<path transform="translate(0,1336)" d="m0 0 5 5 9 8v1h-14z" fill="#E8F1CE"/>
<path transform="translate(0)" d="m0 0h14l-5 5-8 9h-1z" fill="#E8F1CE"/>
<path transform="translate(941,603)" d="m0 0 2 2 3 8v9h-2l-3-7-2 6-3 1 1-8z" fill="#2D2C2C"/>
<path transform="translate(957,653)" d="m0 0 3 3 7 20-1 2h-3l-7-20z" fill="#353535"/>
<path transform="translate(1434,663)" d="m0 0 11 1 23 1 1-2v4h-34z" fill="#4A4949"/>
<path transform="translate(1112,584)" d="m0 0h7v3l-9 2-13 6v-3l7-6z" fill="#2D2D2D"/>
<path transform="translate(499,748)" d="m0 0h7l-4 2-5 4v10l-1 4h-2l-1 3v-20l3-1z" fill="#161414"/>
<path transform="translate(1116,640)" d="m0 0h10l1 3-1 4-9 1-1-1z" fill="#E8F1CE"/>
<path transform="translate(919,652)" d="m0 0 26 1-2 2h-26l-1 2-1-1-1 4-2-1 1-6z" fill="#1D1B1B"/>
<path transform="translate(935,586)" d="m0 0h3l-1 8-4 12h-3l1-8z" fill="#272626"/>
<path transform="translate(2047,1340)" d="m0 0h1v10h-12l5-5z" fill="#E8F1CE"/>
<path transform="translate(2037)" d="m0 0h11v10l-8-6z" fill="#E8F1CE"/>
<path transform="translate(466,748)" d="m0 0h15l-2 5v16l-2-3v-14l-8-1-6-1z" fill="#171515"/>
<path transform="translate(1154,720)" d="m0 0 2 1 2 7h-2l-1 33h-1z" fill="#4A4949"/>
<path transform="translate(1205,650)" d="m0 0 6 9 2 1h9l4-1-4 4-7 1-6-3-4-6z" fill="#4A4949"/>
<path transform="translate(0,32)" d="m0 0 11 1 1 5-2 6-1-3v-2h-2l-2-3-5-1z" fill="#161414"/>
<path transform="translate(912,655)" d="m0 0 2 8-3 8-3 1 1-7z" fill="#2B2A2A"/>
<path transform="translate(2036,1)" d="m0 0 4 2 6 5-1 3-7-3-2-2z" fill="#323232"/>
<path transform="translate(331,1157)" d="m0 0 4 1v4h2l4 6-1 3-2-2-6-7-2-4z" fill="#161414"/>
<path transform="translate(929,604)" d="m0 0 1 2h2l-2 9-4 2 1-7z" fill="#2C2A2A"/>
<path transform="translate(914,655)" d="m0 0h3l4 4 1 6h-3l-3-6-2 1z" fill="#292828"/>
<path transform="translate(300,1111)" d="m0 0 3 2v3l4 2 1 2-2 2-4-2v-4l-3-1z" fill="#161414"/>
<path transform="translate(1805,31)" d="m0 0 3 3 1 8-4-1-1-8zm-2 10h2v2h-2z" fill="#454444"/>
<path transform="translate(381,1228)" d="m0 0 2 1 1 6-4 1-3-1 2-5z" fill="#161414"/>
<path transform="translate(23,309)" d="m0 0 3 1 1 4-2 3-5-3 1-4z" fill="#161414"/>
<path transform="translate(1274,711)" d="m0 0h1l1 21 1 2-1 2h-2z" fill="#4A4949"/>
<path transform="translate(74,646)" d="m0 0h2l2 3v3h-6l-1-4z" fill="#161414"/>
<path transform="translate(362,1206)" d="m0 0 1 2 3 1-1 3h-7l1-4z" fill="#161414"/>
</svg>
